<svg width="45" height="45" viewBox="0 0 45 45" fill="none" xmlns="http://www.w3.org/2000/svg">
<circle cx="22.5" cy="22.5" r="22.5" fill="url(#paint0_linear_306_1622)"/>
<path d="M26.6212 21.938L20.1458 15.5244C19.9336 15.3144 19.5901 15.3148 19.3783 15.5255C19.1667 15.7362 19.1672 16.0776 19.3794 16.2877L25.4694 22.3196L19.3792 28.3514C19.167 28.5616 19.1665 28.9028 19.3781 29.1135C19.4843 29.2192 19.6234 29.272 19.7625 29.272C19.9012 29.272 20.0398 29.2195 20.1457 29.1146L26.6212 22.7012C26.7234 22.6002 26.7808 22.4628 26.7808 22.3196C26.7808 22.1764 26.7233 22.0392 26.6212 21.938Z" fill="#121212"/>
<defs>
<linearGradient id="paint0_linear_306_1622" x1="22.5" y1="0" x2="22.5" y2="45" gradientUnits="userSpaceOnUse">
<stop stop-color="#FCC026"/>
<stop offset="1" stop-color="#FC8B26"/>
</linearGradient>
</defs>
</svg>
