<svg width="45" height="45" viewBox="0 0 45 45" fill="none" xmlns="http://www.w3.org/2000/svg">
<circle r="22.5" transform="matrix(-1 0 0 1 22.5 22.5)" fill="url(#paint0_linear_306_1634)"/>
<path d="M18.3788 21.938L24.8542 15.5244C25.0664 15.3144 25.4099 15.3148 25.6217 15.5255C25.8333 15.7362 25.8328 16.0776 25.6206 16.2877L19.5306 22.3196L25.6208 28.3514C25.833 28.5616 25.8335 28.9028 25.6219 29.1135C25.5157 29.2192 25.3766 29.272 25.2375 29.272C25.0988 29.272 24.9602 29.2195 24.8543 29.1146L18.3788 22.7012C18.2766 22.6002 18.2193 22.4628 18.2193 22.3196C18.2193 22.1764 18.2768 22.0392 18.3788 21.938Z" fill="#121212"/>
<defs>
<linearGradient id="paint0_linear_306_1634" x1="22.5" y1="0" x2="22.5" y2="45" gradientUnits="userSpaceOnUse">
<stop stop-color="#FCC026"/>
<stop offset="1" stop-color="#FC8B26"/>
</linearGradient>
</defs>
</svg>
