<svg width="239" height="58" viewBox="0 0 239 58" fill="none" xmlns="http://www.w3.org/2000/svg">
<g filter="url(#filter0_d_342_1577)">
<rect x="4.41992" y="4.40332" width="230.384" height="48.6727" rx="24.3364" fill="url(#paint0_linear_342_1577)"/>
</g>
<path d="M38.0719 30.585H39.903C39.8444 31.2832 39.6491 31.9058 39.3171 32.4526C38.985 32.9946 38.5187 33.4219 37.9181 33.7344C37.3175 34.0469 36.5876 34.2031 35.7282 34.2031C35.069 34.2031 34.4757 34.0859 33.9484 33.8516C33.4211 33.6123 32.9694 33.2754 32.5934 32.8408C32.2174 32.4014 31.9294 31.8716 31.7292 31.2515C31.5339 30.6313 31.4362 29.938 31.4362 29.1714V28.2852C31.4362 27.5186 31.5363 26.8252 31.7365 26.2051C31.9416 25.585 32.2345 25.0552 32.6154 24.6157C32.9963 24.1714 33.4528 23.832 33.985 23.5977C34.5221 23.3633 35.1252 23.2461 35.7941 23.2461C36.6437 23.2461 37.3615 23.4023 37.9474 23.7148C38.5334 24.0273 38.9875 24.4595 39.3097 25.0112C39.6369 25.563 39.8371 26.1953 39.9103 26.9082H38.0793C38.0304 26.4492 37.923 26.0562 37.757 25.729C37.5959 25.4019 37.3566 25.1528 37.0392 24.9819C36.7218 24.8062 36.3068 24.7183 35.7941 24.7183C35.3742 24.7183 35.008 24.7964 34.6955 24.9526C34.383 25.1089 34.1217 25.3384 33.9118 25.6411C33.7018 25.9438 33.5431 26.3174 33.4357 26.7617C33.3332 27.2012 33.2819 27.7041 33.2819 28.2705V29.1714C33.2819 29.7085 33.3283 30.1968 33.4211 30.6362C33.5187 31.0708 33.6652 31.4443 33.8605 31.7568C34.0607 32.0693 34.3146 32.311 34.6222 32.4819C34.9298 32.6528 35.2985 32.7383 35.7282 32.7383C36.2506 32.7383 36.673 32.6553 36.9953 32.4893C37.3224 32.3232 37.569 32.0815 37.735 31.7642C37.9059 31.4419 38.0182 31.0488 38.0719 30.585ZM42.32 23.3926H43.9606L47.0441 31.6177L50.1203 23.3926H51.7609L47.6886 34.0566H46.3849L42.32 23.3926ZM41.5729 23.3926H43.133L43.404 30.5117V34.0566H41.5729V23.3926ZM50.9479 23.3926H52.5153V34.0566H50.6769V30.5117L50.9479 23.3926ZM63.2013 28.4316V29.0176C63.2013 29.8232 63.0964 30.5459 62.8864 31.1855C62.6764 31.8252 62.3761 32.3696 61.9855 32.8188C61.5998 33.2681 61.1359 33.6123 60.5939 33.8516C60.0519 34.0859 59.4513 34.2031 58.7922 34.2031C58.1379 34.2031 57.5397 34.0859 56.9977 33.8516C56.4606 33.6123 55.9943 33.2681 55.5988 32.8188C55.2033 32.3696 54.8957 31.8252 54.6759 31.1855C54.4611 30.5459 54.3537 29.8232 54.3537 29.0176V28.4316C54.3537 27.626 54.4611 26.9058 54.6759 26.271C54.8908 25.6313 55.1935 25.0869 55.5841 24.6377C55.9797 24.1836 56.446 23.8394 56.9831 23.605C57.5251 23.3657 58.1232 23.2461 58.7775 23.2461C59.4367 23.2461 60.0373 23.3657 60.5793 23.605C61.1213 23.8394 61.5876 24.1836 61.9782 24.6377C62.3688 25.0869 62.6691 25.6313 62.8791 26.271C63.0939 26.9058 63.2013 27.626 63.2013 28.4316ZM61.363 29.0176V28.417C61.363 27.8213 61.3044 27.2964 61.1872 26.8423C61.0749 26.3833 60.9064 26 60.6818 25.6924C60.4621 25.3799 60.1911 25.1455 59.8688 24.9893C59.5465 24.8281 59.1828 24.7476 58.7775 24.7476C58.3722 24.7476 58.0109 24.8281 57.6935 24.9893C57.3761 25.1455 57.1051 25.3799 56.8805 25.6924C56.6608 26 56.4923 26.3833 56.3752 26.8423C56.258 27.2964 56.1994 27.8213 56.1994 28.417V29.0176C56.1994 29.6133 56.258 30.1406 56.3752 30.5996C56.4923 31.0586 56.6632 31.4468 56.8879 31.7642C57.1173 32.0767 57.3908 32.3135 57.7082 32.4746C58.0256 32.6309 58.3869 32.709 58.7922 32.709C59.2023 32.709 59.5661 32.6309 59.8835 32.4746C60.2008 32.3135 60.4694 32.0767 60.6891 31.7642C60.9089 31.4468 61.0749 31.0586 61.1872 30.5996C61.3044 30.1406 61.363 29.6133 61.363 29.0176ZM69.0607 23.3926V34.0566H67.237V23.3926H69.0607ZM72.4079 23.3926V24.8574H63.9191V23.3926H72.4079ZM77.8644 30.0796H75.0885V28.6221H77.8644C78.3478 28.6221 78.7384 28.5439 79.0363 28.3877C79.3341 28.2314 79.5514 28.0166 79.6881 27.7432C79.8298 27.4648 79.9006 27.1475 79.9006 26.791C79.9006 26.4541 79.8298 26.1392 79.6881 25.8462C79.5514 25.5483 79.3341 25.3091 79.0363 25.1284C78.7384 24.9478 78.3478 24.8574 77.8644 24.8574H75.6525V34.0566H73.8141V23.3926H77.8644C78.6896 23.3926 79.3903 23.5391 79.9665 23.832C80.5475 24.1201 80.9894 24.5205 81.2922 25.0332C81.5949 25.541 81.7463 26.1221 81.7463 26.7764C81.7463 27.4648 81.5949 28.0557 81.2922 28.5488C80.9894 29.042 80.5475 29.4204 79.9665 29.6841C79.3903 29.9478 78.6896 30.0796 77.8644 30.0796ZM90.3742 32.5991V34.0566H84.7126V32.5991H90.3742ZM85.2326 23.3926V34.0566H83.3942V23.3926H85.2326ZM89.6344 27.8457V29.2812H84.7126V27.8457H89.6344ZM90.3376 23.3926V24.8574H84.7126V23.3926H90.3376ZM96.4093 23.3926V34.0566H94.5856V23.3926H96.4093ZM99.7565 23.3926V24.8574H91.2677V23.3926H99.7565ZM102.525 27.4868H105.206C106.016 27.4868 106.71 27.6235 107.286 27.897C107.862 28.1655 108.301 28.5439 108.604 29.0322C108.907 29.5205 109.058 30.0894 109.058 30.7388C109.058 31.2271 108.973 31.6738 108.802 32.0791C108.631 32.4844 108.38 32.8359 108.048 33.1338C107.715 33.4268 107.31 33.6538 106.832 33.8149C106.358 33.9761 105.816 34.0566 105.206 34.0566H101.251V23.3926H103.096V32.5991H105.206C105.67 32.5991 106.05 32.5137 106.348 32.3428C106.646 32.167 106.866 31.9375 107.007 31.6543C107.154 31.3711 107.227 31.061 107.227 30.7241C107.227 30.397 107.154 30.0991 107.007 29.8306C106.866 29.562 106.646 29.3472 106.348 29.186C106.05 29.0249 105.67 28.9443 105.206 28.9443H102.525V27.4868ZM118.404 29.2373H115.687L115.672 27.897H118.045C118.445 27.897 118.785 27.8384 119.063 27.7212C119.346 27.5991 119.561 27.4258 119.708 27.2012C119.854 26.9717 119.927 26.6958 119.927 26.3735C119.927 26.0171 119.859 25.7266 119.722 25.502C119.586 25.2773 119.376 25.1138 119.092 25.0112C118.814 24.9087 118.458 24.8574 118.023 24.8574H116.243V34.0566H114.405V23.3926H118.023C118.609 23.3926 119.132 23.4487 119.59 23.561C120.054 23.6733 120.447 23.8491 120.77 24.0884C121.097 24.3228 121.343 24.6206 121.509 24.9819C121.68 25.3433 121.766 25.7729 121.766 26.271C121.766 26.7104 121.661 27.1133 121.451 27.4795C121.241 27.8408 120.931 28.1362 120.521 28.3657C120.111 28.5952 119.6 28.7319 118.99 28.7759L118.404 29.2373ZM118.323 34.0566H115.108L115.936 32.5991H118.323C118.738 32.5991 119.085 32.5308 119.363 32.394C119.642 32.2524 119.849 32.0596 119.986 31.8154C120.128 31.5664 120.198 31.2759 120.198 30.9438C120.198 30.5972 120.137 30.2969 120.015 30.043C119.893 29.7842 119.7 29.5864 119.437 29.4497C119.173 29.3081 118.829 29.2373 118.404 29.2373H116.339L116.353 27.897H119.041L119.459 28.4023C120.045 28.4219 120.526 28.5513 120.902 28.7905C121.282 29.0298 121.566 29.3398 121.751 29.7207C121.937 30.1016 122.029 30.5117 122.029 30.9512C122.029 31.6299 121.881 32.1987 121.583 32.6577C121.29 33.1167 120.867 33.4658 120.316 33.7051C119.764 33.9395 119.1 34.0566 118.323 34.0566ZM130.181 30.585H132.012C131.954 31.2832 131.758 31.9058 131.426 32.4526C131.094 32.9946 130.628 33.4219 130.028 33.7344C129.427 34.0469 128.697 34.2031 127.838 34.2031C127.178 34.2031 126.585 34.0859 126.058 33.8516C125.53 33.6123 125.079 33.2754 124.703 32.8408C124.327 32.4014 124.039 31.8716 123.839 31.2515C123.643 30.6313 123.546 29.938 123.546 29.1714V28.2852C123.546 27.5186 123.646 26.8252 123.846 26.2051C124.051 25.585 124.344 25.0552 124.725 24.6157C125.106 24.1714 125.562 23.832 126.094 23.5977C126.632 23.3633 127.235 23.2461 127.903 23.2461C128.753 23.2461 129.471 23.4023 130.057 23.7148C130.643 24.0273 131.097 24.4595 131.419 25.0112C131.746 25.563 131.946 26.1953 132.02 26.9082H130.189C130.14 26.4492 130.032 26.0562 129.866 25.729C129.705 25.4019 129.466 25.1528 129.149 24.9819C128.831 24.8062 128.416 24.7183 127.903 24.7183C127.484 24.7183 127.117 24.7964 126.805 24.9526C126.492 25.1089 126.231 25.3384 126.021 25.6411C125.811 25.9438 125.653 26.3174 125.545 26.7617C125.443 27.2012 125.391 27.7041 125.391 28.2705V29.1714C125.391 29.7085 125.438 30.1968 125.53 30.6362C125.628 31.0708 125.775 31.4443 125.97 31.7568C126.17 32.0693 126.424 32.311 126.732 32.4819C127.039 32.6528 127.408 32.7383 127.838 32.7383C128.36 32.7383 128.782 32.6553 129.105 32.4893C129.432 32.3232 129.678 32.0815 129.844 31.7642C130.015 31.4419 130.128 31.0488 130.181 30.585ZM140.662 32.5991V34.0566H135.001V32.5991H140.662ZM135.521 23.3926V34.0566H133.682V23.3926H135.521ZM139.923 27.8457V29.2812H135.001V27.8457H139.923ZM140.626 23.3926V24.8574H135.001V23.3926H140.626ZM154.402 28.4316V29.0176C154.402 29.8232 154.298 30.5459 154.088 31.1855C153.878 31.8252 153.577 32.3696 153.187 32.8188C152.801 33.2681 152.337 33.6123 151.795 33.8516C151.253 34.0859 150.652 34.2031 149.993 34.2031C149.339 34.2031 148.741 34.0859 148.199 33.8516C147.662 33.6123 147.195 33.2681 146.8 32.8188C146.404 32.3696 146.097 31.8252 145.877 31.1855C145.662 30.5459 145.555 29.8232 145.555 29.0176V28.4316C145.555 27.626 145.662 26.9058 145.877 26.271C146.092 25.6313 146.395 25.0869 146.785 24.6377C147.181 24.1836 147.647 23.8394 148.184 23.605C148.726 23.3657 149.324 23.2461 149.979 23.2461C150.638 23.2461 151.238 23.3657 151.78 23.605C152.322 23.8394 152.789 24.1836 153.179 24.6377C153.57 25.0869 153.87 25.6313 154.08 26.271C154.295 26.9058 154.402 27.626 154.402 28.4316ZM152.564 29.0176V28.417C152.564 27.8213 152.506 27.2964 152.388 26.8423C152.276 26.3833 152.108 26 151.883 25.6924C151.663 25.3799 151.392 25.1455 151.07 24.9893C150.748 24.8281 150.384 24.7476 149.979 24.7476C149.573 24.7476 149.212 24.8281 148.895 24.9893C148.577 25.1455 148.306 25.3799 148.082 25.6924C147.862 26 147.694 26.3833 147.576 26.8423C147.459 27.2964 147.401 27.8213 147.401 28.417V29.0176C147.401 29.6133 147.459 30.1406 147.576 30.5996C147.694 31.0586 147.864 31.4468 148.089 31.7642C148.319 32.0767 148.592 32.3135 148.909 32.4746C149.227 32.6309 149.588 32.709 149.993 32.709C150.403 32.709 150.767 32.6309 151.085 32.4746C151.402 32.3135 151.671 32.0767 151.89 31.7642C152.11 31.4468 152.276 31.0586 152.388 30.5996C152.506 30.1406 152.564 29.6133 152.564 29.0176ZM160.262 23.3926V34.0566H158.438V23.3926H160.262ZM163.609 23.3926V24.8574H155.12V23.3926H163.609ZM168.67 28.9443H167.191V27.897H168.465C168.919 27.897 169.288 27.8311 169.571 27.6992C169.854 27.5625 170.059 27.3745 170.186 27.1353C170.318 26.8911 170.384 26.6079 170.384 26.2856C170.384 25.9976 170.311 25.7339 170.164 25.4946C170.023 25.2554 169.803 25.0649 169.505 24.9233C169.207 24.7769 168.824 24.7036 168.355 24.7036C168.004 24.7036 167.684 24.7671 167.396 24.894C167.108 25.021 166.878 25.1992 166.707 25.4287C166.541 25.6582 166.458 25.9292 166.458 26.2417H164.62C164.62 25.7778 164.717 25.3628 164.913 24.9966C165.113 24.6255 165.384 24.3105 165.726 24.0518C166.072 23.793 166.47 23.5952 166.92 23.4585C167.374 23.3169 167.852 23.2461 168.355 23.2461C168.941 23.2461 169.471 23.312 169.944 23.4438C170.418 23.5708 170.826 23.7612 171.168 24.0151C171.509 24.269 171.771 24.5864 171.951 24.9673C172.132 25.3433 172.222 25.7803 172.222 26.2783C172.222 26.6445 172.137 26.9888 171.966 27.311C171.8 27.6333 171.561 27.9165 171.248 28.1606C170.936 28.4048 170.56 28.5977 170.12 28.7393C169.686 28.876 169.202 28.9443 168.67 28.9443ZM167.191 28.3071H168.67C169.261 28.3071 169.786 28.3682 170.245 28.4902C170.704 28.6123 171.092 28.7905 171.409 29.0249C171.727 29.2593 171.968 29.5498 172.134 29.8965C172.3 30.2383 172.383 30.6313 172.383 31.0757C172.383 31.5737 172.283 32.0181 172.083 32.4087C171.888 32.7944 171.61 33.1216 171.248 33.3901C170.887 33.6587 170.46 33.8613 169.966 33.998C169.478 34.1348 168.941 34.2031 168.355 34.2031C167.882 34.2031 167.413 34.1445 166.949 34.0273C166.49 33.9053 166.072 33.7197 165.696 33.4707C165.325 33.2168 165.027 32.8945 164.803 32.5039C164.578 32.1133 164.466 31.6445 164.466 31.0977H166.312C166.312 31.4004 166.397 31.6787 166.568 31.9326C166.744 32.1816 166.983 32.3818 167.286 32.5332C167.593 32.6797 167.95 32.7529 168.355 32.7529C168.819 32.7529 169.212 32.6797 169.534 32.5332C169.861 32.3867 170.111 32.1865 170.281 31.9326C170.457 31.6787 170.545 31.3931 170.545 31.0757C170.545 30.7729 170.499 30.5117 170.406 30.292C170.318 30.0674 170.186 29.8867 170.01 29.75C169.835 29.6084 169.617 29.5034 169.359 29.4351C169.1 29.3667 168.802 29.3325 168.465 29.3325H167.191V28.3071ZM175.43 27.4868H178.118C178.929 27.4868 179.62 27.6235 180.191 27.897C180.767 28.1655 181.207 28.5439 181.509 29.0322C181.817 29.5205 181.971 30.0894 181.971 30.7388C181.971 31.2271 181.883 31.6738 181.707 32.0791C181.536 32.4844 181.285 32.8359 180.953 33.1338C180.621 33.4268 180.215 33.6538 179.737 33.8149C179.263 33.9761 178.724 34.0566 178.118 34.0566H174.163V23.3926H176.002V32.5991H178.118C178.582 32.5991 178.963 32.5137 179.261 32.3428C179.559 32.167 179.778 31.9375 179.92 31.6543C180.067 31.3711 180.14 31.061 180.14 30.7241C180.14 30.397 180.067 30.0991 179.92 29.8306C179.778 29.562 179.559 29.3472 179.261 29.186C178.963 29.0249 178.582 28.9443 178.118 28.9443H175.43V27.4868ZM184.908 23.3926V34.0566H183.069V23.3926H184.908ZM191.133 29.2373H188.416L188.402 27.897H190.775C191.175 27.897 191.514 27.8384 191.793 27.7212C192.076 27.5991 192.291 27.4258 192.437 27.2012C192.584 26.9717 192.657 26.6958 192.657 26.3735C192.657 26.0171 192.589 25.7266 192.452 25.502C192.315 25.2773 192.105 25.1138 191.822 25.0112C191.544 24.9087 191.187 24.8574 190.753 24.8574H188.973V34.0566H187.134V23.3926H190.753C191.339 23.3926 191.861 23.4487 192.32 23.561C192.784 23.6733 193.177 23.8491 193.499 24.0884C193.826 24.3228 194.073 24.6206 194.239 24.9819C194.41 25.3433 194.495 25.7729 194.495 26.271C194.495 26.7104 194.39 27.1133 194.18 27.4795C193.97 27.8408 193.66 28.1362 193.25 28.3657C192.84 28.5952 192.33 28.7319 191.719 28.7759L191.133 29.2373ZM191.053 34.0566H187.838L188.665 32.5991H191.053C191.468 32.5991 191.815 32.5308 192.093 32.394C192.371 32.2524 192.579 32.0596 192.715 31.8154C192.857 31.5664 192.928 31.2759 192.928 30.9438C192.928 30.5972 192.867 30.2969 192.745 30.043C192.623 29.7842 192.43 29.5864 192.166 29.4497C191.902 29.3081 191.558 29.2373 191.133 29.2373H189.068L189.083 27.897H191.771L192.188 28.4023C192.774 28.4219 193.255 28.5513 193.631 28.7905C194.012 29.0298 194.295 29.3398 194.481 29.7207C194.666 30.1016 194.759 30.5117 194.759 30.9512C194.759 31.6299 194.61 32.1987 194.312 32.6577C194.019 33.1167 193.597 33.4658 193.045 33.7051C192.493 33.9395 191.829 34.0566 191.053 34.0566ZM197.916 27.4868H200.604C201.414 27.4868 202.105 27.6235 202.676 27.897C203.253 28.1655 203.692 28.5439 203.995 29.0322C204.302 29.5205 204.456 30.0894 204.456 30.7388C204.456 31.2271 204.368 31.6738 204.193 32.0791C204.022 32.4844 203.77 32.8359 203.438 33.1338C203.106 33.4268 202.701 33.6538 202.222 33.8149C201.749 33.9761 201.209 34.0566 200.604 34.0566H196.649V23.3926H198.487V32.5991H200.604C201.068 32.5991 201.448 32.5137 201.746 32.3428C202.044 32.167 202.264 31.9375 202.405 31.6543C202.552 31.3711 202.625 31.061 202.625 30.7241C202.625 30.397 202.552 30.0991 202.405 29.8306C202.264 29.562 202.044 29.3472 201.746 29.186C201.448 29.0249 201.068 28.9443 200.604 28.9443H197.916V27.4868ZM207.393 23.3926V34.0566H205.555V23.3926H207.393Z" fill="#121212"/>
<defs>
<filter id="filter0_d_342_1577" x="0.419922" y="0.40332" width="238.385" height="56.6729" filterUnits="userSpaceOnUse" color-interpolation-filters="sRGB">
<feFlood flood-opacity="0" result="BackgroundImageFix"/>
<feColorMatrix in="SourceAlpha" type="matrix" values="0 0 0 0 0 0 0 0 0 0 0 0 0 0 0 0 0 0 127 0" result="hardAlpha"/>
<feOffset/>
<feGaussianBlur stdDeviation="2"/>
<feComposite in2="hardAlpha" operator="out"/>
<feColorMatrix type="matrix" values="0 0 0 0 0 0 0 0 0 0 0 0 0 0 0 0 0 0 0.2 0"/>
<feBlend mode="normal" in2="BackgroundImageFix" result="effect1_dropShadow_342_1577"/>
<feBlend mode="normal" in="SourceGraphic" in2="effect1_dropShadow_342_1577" result="shape"/>
</filter>
<linearGradient id="paint0_linear_342_1577" x1="119.612" y1="4.40332" x2="119.612" y2="53.0761" gradientUnits="userSpaceOnUse">
<stop stop-color="#FCC026"/>
<stop offset="1" stop-color="#FC8B26"/>
</linearGradient>
</defs>
</svg>
