<svg width="248" height="169" viewBox="0 0 248 169" fill="none" xmlns="http://www.w3.org/2000/svg">
<path d="M35.2491 13.917H16.6091V23.997H34.2091V37.277H16.6091V47.677H35.2491V60.957H0.92907V0.637031H35.2491V13.917ZM86.2341 0.637031V47.677H105.034V60.957H70.5541V0.637031H86.2341ZM152.812 0.637031V60.957H137.132V0.637031H152.812ZM206.693 28.797L187.893 0.637031H207.253L215.413 16.237L225.493 0.637031H244.853L224.933 28.797L247.413 60.957H228.293L216.213 41.277L202.053 60.957H183.093L206.693 28.797ZM18.4997 106.637V166.957H2.8197V106.637H18.4997ZM74.7809 133.597H77.7409C80.8343 133.597 83.2076 132.957 84.8609 131.677C86.5143 130.397 87.3409 128.557 87.3409 126.157C87.3409 123.757 86.5143 121.917 84.8609 120.637C83.2076 119.357 80.8343 118.717 77.7409 118.717H74.7809V133.597ZM109.261 166.957H89.7409L74.7809 143.757V166.957H59.1009V106.637H83.5009C86.8609 106.637 89.7943 107.144 92.3009 108.157C94.8076 109.117 96.8609 110.45 98.4609 112.157C100.114 113.864 101.341 115.837 102.141 118.077C102.994 120.317 103.421 122.717 103.421 125.277C103.421 129.864 102.301 133.597 100.061 136.477C97.8743 139.304 94.6209 141.224 90.3009 142.237L109.261 166.957ZM159.5 106.637V166.957H143.82V106.637H159.5ZM233.221 122.077C231.514 120.69 229.808 119.677 228.101 119.037C226.394 118.344 224.741 117.997 223.141 117.997C221.114 117.997 219.461 118.477 218.181 119.437C216.901 120.397 216.261 121.65 216.261 123.197C216.261 124.264 216.581 125.144 217.221 125.837C217.861 126.53 218.688 127.144 219.701 127.677C220.768 128.157 221.941 128.584 223.221 128.957C224.554 129.33 225.861 129.73 227.141 130.157C232.261 131.864 235.994 134.157 238.341 137.037C240.741 139.864 241.941 143.57 241.941 148.157C241.941 151.25 241.408 154.05 240.341 156.557C239.328 159.064 237.808 161.224 235.781 163.037C233.808 164.797 231.354 166.157 228.421 167.117C225.541 168.13 222.261 168.637 218.581 168.637C210.954 168.637 203.888 166.37 197.381 161.837L204.101 149.197C206.448 151.277 208.768 152.824 211.061 153.837C213.354 154.85 215.621 155.357 217.861 155.357C220.421 155.357 222.314 154.77 223.541 153.597C224.821 152.424 225.461 151.09 225.461 149.597C225.461 148.69 225.301 147.917 224.981 147.277C224.661 146.584 224.128 145.97 223.381 145.437C222.634 144.85 221.648 144.317 220.421 143.837C219.248 143.357 217.808 142.824 216.101 142.237C214.074 141.597 212.074 140.904 210.101 140.157C208.181 139.357 206.448 138.317 204.901 137.037C203.408 135.757 202.181 134.157 201.221 132.237C200.314 130.264 199.861 127.784 199.861 124.797C199.861 121.81 200.341 119.117 201.301 116.717C202.314 114.264 203.701 112.184 205.461 110.477C207.274 108.717 209.461 107.357 212.021 106.397C214.634 105.437 217.541 104.957 220.741 104.957C223.728 104.957 226.848 105.384 230.101 106.237C233.354 107.037 236.474 108.237 239.461 109.837L233.221 122.077Z" fill="white"/>
</svg>
