<svg width="88" height="61" viewBox="0 0 88 61" fill="none" xmlns="http://www.w3.org/2000/svg">
<path d="M12.4786 5.25695H5.84402V8.84475H12.1084V13.5715H5.84402V17.2732H12.4786V22H0.263V0.530169H12.4786V5.25695ZM30.6258 0.530169V17.2732H37.3173V22H25.0448V0.530169H30.6258ZM54.3231 0.530169V22H48.7421V0.530169H54.3231ZM73.5012 10.5532L66.8096 0.530169H73.7005L76.6049 6.08271L80.1927 0.530169H87.0835L79.9934 10.5532L87.9947 22H81.1893L76.8896 14.9953L71.8496 22H65.1012L73.5012 10.5532ZM6.51695 38.5302V60H0.935931V38.5302H6.51695ZM26.5493 48.1261H27.6028C28.7038 48.1261 29.5486 47.8983 30.1371 47.4427C30.7255 46.9871 31.0198 46.3322 31.0198 45.478C31.0198 44.6237 30.7255 43.9688 30.1371 43.5132C29.5486 43.0576 28.7038 42.8298 27.6028 42.8298H26.5493V48.1261ZM38.8218 60H31.874L26.5493 51.7424V60H20.9682V38.5302H29.653C30.8489 38.5302 31.893 38.7105 32.7852 39.0712C33.6774 39.4129 34.4082 39.8875 34.9777 40.4949C35.5662 41.1024 36.0028 41.8047 36.2876 42.602C36.5913 43.3993 36.7432 44.2536 36.7432 45.1647C36.7432 46.7973 36.3445 48.1261 35.5472 49.1512C34.7689 50.1573 33.611 50.8407 32.0733 51.2014L38.8218 60ZM56.7034 38.5302V60H51.1224V38.5302H56.7034ZM82.9432 44.0258C82.3357 43.5322 81.7282 43.1715 81.1208 42.9437C80.5133 42.6969 79.9249 42.5736 79.3554 42.5736C78.634 42.5736 78.0455 42.7444 77.5899 43.0861C77.1343 43.4278 76.9065 43.8739 76.9065 44.4244C76.9065 44.8041 77.0204 45.1173 77.2482 45.3641C77.476 45.6108 77.7703 45.8292 78.131 46.019C78.5106 46.1898 78.9282 46.3417 79.3838 46.4746C79.8584 46.6075 80.3235 46.7498 80.7791 46.9017C82.6015 47.5092 83.9303 48.3254 84.7655 49.3505C85.6198 50.3566 86.0469 51.6759 86.0469 53.3085C86.0469 54.4095 85.8571 55.4061 85.4774 56.2983C85.1167 57.1905 84.5757 57.9593 83.8543 58.6047C83.152 59.2312 82.2788 59.7153 81.2347 60.0569C80.2096 60.4176 79.0421 60.598 77.7323 60.598C75.0177 60.598 72.5025 59.7912 70.1865 58.1776L72.5784 53.6786C73.4137 54.419 74.2394 54.9695 75.0557 55.3302C75.872 55.6908 76.6787 55.8712 77.476 55.8712C78.3872 55.8712 79.0611 55.6624 79.4977 55.2447C79.9533 54.8271 80.1811 54.3525 80.1811 53.821C80.1811 53.4983 80.1242 53.2231 80.0103 52.9953C79.8964 52.7485 79.7065 52.5302 79.4408 52.3403C79.175 52.1315 78.8238 51.9417 78.3872 51.7708C77.9696 51.6 77.4571 51.4102 76.8496 51.2014C76.1282 50.9736 75.4164 50.7268 74.714 50.461C74.0306 50.1763 73.4137 49.8061 72.8632 49.3505C72.3316 48.8949 71.895 48.3254 71.5533 47.642C71.2306 46.9397 71.0693 46.0569 71.0693 44.9939C71.0693 43.9308 71.2401 42.9722 71.5818 42.118C71.9425 41.2447 72.436 40.5044 73.0625 39.8969C73.7079 39.2705 74.4862 38.7864 75.3974 38.4447C76.3276 38.103 77.3621 37.9322 78.5011 37.9322C79.5642 37.9322 80.6747 38.0841 81.8326 38.3878C82.9906 38.6725 84.1011 39.0997 85.1642 39.6692L82.9432 44.0258Z" fill="#333333"/>
</svg>
