<svg width="45" height="45" viewBox="0 0 45 45" fill="none" xmlns="http://www.w3.org/2000/svg">
<circle cx="22.5" cy="22.5" r="22.5" fill="url(#paint0_linear_450_2316)"/>
<path d="M26.6212 21.7229L20.1458 15.3096C19.9336 15.0996 19.5901 15.0999 19.3783 15.3107C19.1667 15.5214 19.1672 15.8627 19.3794 16.0729L25.4694 22.1045L19.3792 28.1361C19.167 28.3463 19.1665 28.6874 19.3781 28.8982C19.4843 29.0038 19.6234 29.0566 19.7625 29.0566C19.9012 29.0566 20.0398 29.0042 20.1457 28.8993L26.6212 22.4861C26.7234 22.3851 26.7807 22.2477 26.7807 22.1045C26.7807 21.9613 26.7232 21.8241 26.6212 21.7229Z" fill="#121212"/>
<defs>
<linearGradient id="paint0_linear_450_2316" x1="22.5" y1="0" x2="22.5" y2="45" gradientUnits="userSpaceOnUse">
<stop stop-color="#FCC026"/>
<stop offset="1" stop-color="#FC8B26"/>
</linearGradient>
</defs>
</svg>
