<svg width="85" height="20" viewBox="0 0 85 20" fill="none" xmlns="http://www.w3.org/2000/svg">
<g clip-path="url(#clip0_120_15)">
<path d="M10.7336 0.00123024H4.18597C3.73783 0.00123024 3.35682 0.291526 3.2869 0.686005L0.638712 15.6552C0.586041 15.9504 0.842683 16.2168 1.17868 16.2168H4.30464C4.7527 16.2168 5.13372 15.9266 5.20363 15.5314L5.91784 11.494C5.98682 11.0987 6.36878 10.8085 6.81589 10.8085H8.88869C13.2018 10.8085 15.6911 8.94769 16.3412 5.26023C16.6341 3.64695 16.3536 2.37942 15.5063 1.4917C14.5757 0.516815 12.9251 0.00123024 10.7336 0.00123024ZM11.4891 5.46853C11.131 7.56323 9.33581 7.56323 7.60002 7.56323H6.612L7.30514 3.65128C7.34635 3.4148 7.57607 3.24068 7.84418 3.24068H8.29699C9.47938 3.24068 10.5948 3.24068 11.1711 3.84153C11.5149 4.20009 11.6202 4.7327 11.4891 5.46853Z" fill="white"/>
<path d="M30.3057 5.40144H27.1703C26.9032 5.40144 26.6725 5.57558 26.6312 5.81204L26.4925 6.59391L26.2732 6.31049C25.5944 5.43213 24.0807 5.13856 22.5699 5.13856C19.1051 5.13856 16.1457 7.4782 15.5694 10.7602C15.2697 12.3974 15.6958 13.9628 16.7374 15.0545C17.6929 16.0583 19.06 16.4766 20.6868 16.4766C23.4786 16.4766 25.0267 14.8762 25.0267 14.8762L24.8869 15.6529C24.8341 15.95 25.0908 16.2163 25.425 16.2163H28.2492C28.6982 16.2163 29.0774 15.9261 29.1483 15.5309L30.8428 5.96308C30.8966 5.66858 30.6409 5.40144 30.3057 5.40144ZM25.9352 10.8422C25.6328 12.4392 24.2109 13.5114 22.3977 13.5114C21.4872 13.5114 20.7595 13.251 20.2922 12.7576C19.8289 12.2676 19.6527 11.5703 19.8002 10.7935C20.0826 9.2101 21.5284 8.10306 23.3138 8.10306C24.2043 8.10306 24.928 8.36679 25.4048 8.86435C25.8827 9.36711 26.072 10.0688 25.9352 10.8422Z" fill="white"/>
<path d="M47.0051 5.40112H43.8543C43.5537 5.40112 43.2712 5.53428 43.1008 5.75712L38.7551 11.4641L36.9131 5.97988C36.7973 5.63669 36.4421 5.40112 36.04 5.40112H32.9438C32.5674 5.40112 32.3061 5.72887 32.4258 6.0447L35.8964 15.1251L32.6335 19.2317C32.3769 19.5551 32.6353 20 33.0788 20H36.2258C36.5244 20 36.8041 19.8702 36.9735 19.6517L47.4531 6.16513C47.704 5.8424 47.4466 5.40112 47.0051 5.40112Z" fill="white"/>
<path d="M57.4367 0.00123024H50.8881C50.441 0.00123024 50.0599 0.291526 49.99 0.686005L47.3418 15.6552C47.2893 15.9504 47.5458 16.2168 47.88 16.2168H51.2405C51.5525 16.2168 51.8198 16.0137 51.8685 15.7371L52.62 11.494C52.6889 11.0987 53.0711 10.8085 53.5181 10.8085H55.59C59.904 10.8085 62.3923 8.94769 63.0433 5.26023C63.3374 3.64695 63.0549 2.37942 62.2076 1.4917C61.2779 0.516815 59.6283 0.00123024 57.4367 0.00123024ZM58.1922 5.46853C57.8351 7.56323 56.04 7.56323 54.3032 7.56323H53.3162L54.0103 3.65128C54.0515 3.4148 54.2792 3.24068 54.5483 3.24068H55.0011C56.1827 3.24068 57.2989 3.24068 57.8752 3.84153C58.219 4.20009 58.3233 4.7327 58.1922 5.46853Z" fill="white" fill-opacity="0.6"/>
<path d="M77.0083 5.40144H73.8747C73.6057 5.40144 73.3767 5.57558 73.3366 5.81204L73.1978 6.59391L72.9776 6.31049C72.2989 5.43213 70.7861 5.13856 69.2753 5.13856C65.8103 5.13856 62.8521 7.4782 62.2756 10.7602C61.977 12.3974 62.4011 13.9628 63.4428 15.0545C64.4002 16.0583 65.7654 16.4766 67.392 16.4766C70.1838 16.4766 71.7319 14.8762 71.7319 14.8762L71.5921 15.6529C71.5396 15.95 71.7961 16.2163 72.1323 16.2163H74.9556C75.4027 16.2163 75.7838 15.9261 75.8537 15.5309L77.5493 5.96308C77.6008 5.66858 77.3443 5.40144 77.0083 5.40144ZM72.6376 10.8422C72.337 12.4392 70.9133 13.5114 69.1001 13.5114C68.1914 13.5114 67.4619 13.251 66.9947 12.7576C66.5315 12.2676 66.3571 11.5703 66.5027 10.7935C66.7869 9.2101 68.2308 8.10306 70.0164 8.10306C70.9067 8.10306 71.6305 8.36679 72.1073 8.86435C72.5869 9.36711 72.7765 10.0688 72.6376 10.8422Z" fill="white" fill-opacity="0.6"/>
<path d="M80.7046 0.411919L78.0171 15.6552C77.9646 15.9504 78.2211 16.2168 78.5552 16.2168H81.257C81.706 16.2168 82.0872 15.9266 82.1561 15.5314L84.806 0.563121C84.8588 0.267662 84.6023 0.000520706 84.2681 0.000520706H81.2426C80.9755 0.00123405 80.7458 0.175587 80.7046 0.411919Z" fill="white" fill-opacity="0.6"/>
</g>
<defs>
<clipPath id="clip0_120_15">
<rect width="84.1818" height="20" fill="white" transform="translate(0.631836)"/>
</clipPath>
</defs>
</svg>
