<svg width="78" height="21" viewBox="0 0 78 21" fill="none" xmlns="http://www.w3.org/2000/svg">
<g clip-path="url(#clip0_2_652)">
<path d="M9.30805 0.0513802H3.27423C2.86127 0.0513802 2.51015 0.351433 2.44572 0.759172L0.0053596 16.2315C-0.0431773 16.5367 0.193324 16.812 0.502953 16.812H3.3836C3.79649 16.812 4.1476 16.5121 4.21203 16.1036L4.87019 11.9305C4.93376 11.5219 5.28574 11.2219 5.69777 11.2219H7.6079C11.5825 11.2219 13.8764 9.29857 14.4755 5.48716C14.7455 3.81964 14.487 2.5095 13.7061 1.59195C12.8486 0.584295 11.3275 0.0513802 9.30805 0.0513802ZM10.0042 5.70246C9.67421 7.86756 8.01993 7.86756 6.42036 7.86756H5.50988L6.14862 3.82412C6.18659 3.57969 6.39829 3.39972 6.64536 3.39972H7.06263C8.15223 3.39972 9.18013 3.39972 9.71122 4.02077C10.028 4.39138 10.1251 4.94189 10.0042 5.70246Z" fill="#688C63"/>
<path d="M27.3442 5.63244H24.4549C24.2088 5.63244 23.9962 5.81244 23.9581 6.05684L23.8303 6.86499L23.6282 6.57204C23.0027 5.66416 21.6077 5.36072 20.2155 5.36072C17.0226 5.36072 14.2955 7.77901 13.7644 11.1713C13.4883 12.8635 13.8809 14.4816 14.8408 15.61C15.7213 16.6475 16.9811 17.0798 18.4802 17.0798C21.0529 17.0798 22.4795 15.4257 22.4795 15.4257L22.3507 16.2285C22.3021 16.5356 22.5386 16.8108 22.8466 16.8108H25.4491C25.8629 16.8108 26.2123 16.5108 26.2777 16.1024L27.8392 6.21296C27.8888 5.90856 27.6531 5.63244 27.3442 5.63244ZM23.3167 11.2561C23.038 12.9067 21.7278 14.015 20.0569 14.015C19.2178 14.015 18.5472 13.7458 18.1166 13.2358C17.6896 12.7294 17.5273 12.0086 17.6632 11.2057C17.9234 9.56912 19.2557 8.42487 20.901 8.42487C21.7217 8.42487 22.3886 8.69746 22.828 9.21174C23.2683 9.7314 23.4428 10.4567 23.3167 11.2561Z" fill="#688C63"/>
<path d="M42.7326 5.63208H39.8291C39.5521 5.63208 39.2918 5.76972 39.1348 6.00004L35.1301 11.8989L33.4327 6.23029C33.3259 5.87557 32.9986 5.63208 32.6281 5.63208H29.7748C29.428 5.63208 29.1873 5.97085 29.2975 6.29729L32.4957 15.6829L29.489 19.9275C29.2524 20.2618 29.4906 20.7217 29.8993 20.7217H32.7993C33.0745 20.7217 33.3322 20.5875 33.4883 20.3616L43.1455 6.42177C43.3767 6.0882 43.1395 5.63208 42.7326 5.63208Z" fill="#688C63"/>
<path d="M52.3459 0.0499153H46.3112C45.8992 0.0499153 45.548 0.349968 45.4835 0.757708L43.0432 16.23C42.9948 16.5352 43.2311 16.8105 43.5391 16.8105H46.6359C46.9234 16.8105 47.1697 16.6007 47.2146 16.3148L47.9071 11.929C47.9706 11.5205 48.3228 11.2205 48.7348 11.2205H50.6441C54.6195 11.2205 56.9126 9.2971 57.5125 5.48569C57.7834 3.81818 57.5232 2.50804 56.7423 1.59049C55.8856 0.58283 54.3654 0.0499153 52.3459 0.0499153ZM53.0421 5.70099C52.7129 7.8661 51.0588 7.8661 49.4582 7.8661H48.5487L49.1883 3.82265C49.2263 3.57823 49.4361 3.39825 49.6841 3.39825H50.1014C51.1902 3.39825 52.2189 3.39825 52.7499 4.01931C53.0667 4.38992 53.1628 4.94043 53.0421 5.70099Z" fill="#688C63" fill-opacity="0.6"/>
<path d="M70.3817 5.63244H67.494C67.246 5.63244 67.0351 5.81244 66.9981 6.05684L66.8701 6.86499L66.6673 6.57204C66.0418 5.66416 64.6477 5.36072 63.2555 5.36072C60.0625 5.36072 57.3364 7.77901 56.8052 11.1713C56.53 12.8635 56.9208 14.4816 57.8807 15.61C58.763 16.6475 60.021 17.0798 61.52 17.0798C64.0927 17.0798 65.5194 15.4257 65.5194 15.4257L65.3905 16.2285C65.3421 16.5356 65.5784 16.8108 65.8882 16.8108H68.49C68.902 16.8108 69.2532 16.5108 69.3177 16.1024L70.8801 6.21296C70.9276 5.90856 70.6913 5.63244 70.3817 5.63244ZM66.354 11.2561C66.0769 12.9067 64.765 14.015 63.0941 14.015C62.2567 14.015 61.5844 13.7458 61.1539 13.2358C60.727 12.7294 60.5663 12.0086 60.7005 11.2057C60.9624 9.56912 62.293 8.42487 63.9385 8.42487C64.7589 8.42487 65.4258 8.69746 65.8652 9.21174C66.3072 9.7314 66.4819 10.4567 66.354 11.2561Z" fill="#688C63" fill-opacity="0.6"/>
<path d="M73.7879 0.474415L71.3112 16.23C71.2628 16.5352 71.4992 16.8105 71.8072 16.8105H74.2968C74.7107 16.8105 75.0619 16.5106 75.1254 16.1021L77.5674 0.630699C77.616 0.32531 77.3796 0.0491886 77.0717 0.0491886H74.2836C74.0375 0.0499249 73.8258 0.230141 73.7879 0.474415Z" fill="#688C63" fill-opacity="0.6"/>
</g>
<defs>
<clipPath id="clip0_2_652">
<rect width="77.5753" height="20.6723" fill="white" transform="translate(-0.000244141 0.0498047)"/>
</clipPath>
</defs>
</svg>
