<svg width="45" height="45" viewBox="0 0 45 45" fill="none" xmlns="http://www.w3.org/2000/svg">
<circle r="22.5" transform="matrix(-1 0 0 1 22.5 22.5)" fill="white"/>
<path d="M18.3788 22.6158L24.8542 16.1583C25.0664 15.9469 25.4099 15.9472 25.6217 16.1594C25.8333 16.3716 25.8328 16.7153 25.6206 16.9269L19.5306 23L25.6208 29.0731C25.833 29.2848 25.8335 29.6283 25.6219 29.8404C25.5157 29.9468 25.3766 30 25.2375 30C25.0988 30 24.9602 29.9472 24.8543 29.8415L18.3788 23.3842C18.2766 23.2825 18.2193 23.1442 18.2193 23C18.2193 22.8559 18.2768 22.7177 18.3788 22.6158Z" fill="#121212"/>
</svg>
