<svg width="45" height="45" viewBox="0 0 45 45" fill="none" xmlns="http://www.w3.org/2000/svg">
<circle r="22.5" transform="matrix(-1 0 0 1 22.5 22.5)" fill="url(#paint0_linear_450_2333)"/>
<path d="M18.3788 21.7229L24.8542 15.3096C25.0664 15.0996 25.4099 15.0999 25.6217 15.3107C25.8333 15.5214 25.8328 15.8627 25.6206 16.0729L19.5306 22.1045L25.6208 28.1361C25.833 28.3463 25.8335 28.6874 25.6219 28.8982C25.5157 29.0038 25.3766 29.0566 25.2375 29.0566C25.0988 29.0566 24.9602 29.0042 24.8543 28.8993L18.3788 22.4861C18.2766 22.3851 18.2193 22.2477 18.2193 22.1045C18.2193 21.9613 18.2768 21.8241 18.3788 21.7229Z" fill="#121212"/>
<defs>
<linearGradient id="paint0_linear_450_2333" x1="22.5" y1="0" x2="22.5" y2="45" gradientUnits="userSpaceOnUse">
<stop stop-color="#FCC026"/>
<stop offset="1" stop-color="#FC8B26"/>
</linearGradient>
</defs>
</svg>
