<svg width="56" height="56" viewBox="0 0 56 56" fill="none" xmlns="http://www.w3.org/2000/svg">
<path d="M56 43.4328C56 50.3781 50.3672 56 43.4328 56H12.5672C5.63281 56 0 50.3672 0 43.4328V12.5672C0 5.63281 5.63281 0 12.5672 0H43.4328C50.3672 0 56 5.63281 56 12.5672V43.4328Z" fill="#678AAF"/>
<path d="M27.617 38.2151H29.7717C29.7717 38.2151 30.4279 38.1386 30.7561 37.7886C31.0623 37.4605 31.0514 36.837 31.0514 36.837C31.0514 36.837 31.0076 33.9386 32.3529 33.512C33.6764 33.0855 35.3826 36.312 37.1873 37.5479C38.5545 38.4886 39.5936 38.2808 39.5936 38.2808L44.417 38.2151C44.417 38.2151 46.9436 38.062 45.7404 36.0714C45.642 35.9073 45.0404 34.6058 42.1529 31.9261C39.1342 29.1261 39.5389 29.5745 43.1811 24.7183C45.4014 21.7651 46.2873 19.9605 46.0139 19.1839C45.7514 18.4511 44.1217 18.648 44.1217 18.648L38.6857 18.6808C38.6857 18.6808 38.2811 18.6261 37.9857 18.8011C37.6904 18.9761 37.5045 19.3808 37.5045 19.3808C37.5045 19.3808 36.6404 21.6667 35.492 23.6136C33.0748 27.7261 32.1123 27.9339 31.7076 27.6823C30.7889 27.0808 31.0186 25.298 31.0186 24.0183C31.0186 20.037 31.6201 18.3855 29.8373 17.948C29.2467 17.8058 28.8092 17.7073 27.2998 17.6964C25.3639 17.6745 23.7232 17.7073 22.7936 18.1558C22.1811 18.462 21.6998 19.1292 21.9842 19.173C22.3451 19.2167 23.1545 19.3917 23.592 19.9823C24.1498 20.737 24.1279 22.4433 24.1279 22.4433C24.1279 22.4433 24.4451 27.1245 23.3842 27.7151C22.6514 28.1198 21.6451 27.2995 19.4904 23.5698C18.3857 21.6667 17.5545 19.5558 17.5545 19.5558C17.5545 19.5558 17.3904 19.162 17.1061 18.9542C16.7561 18.7026 16.2748 18.6151 16.2748 18.6151L11.1123 18.648C11.1123 18.648 10.3357 18.6698 10.0514 19.0089C9.7998 19.3042 10.0295 19.9276 10.0295 19.9276C10.0295 19.9276 14.0654 29.3776 18.6482 34.1464C22.8482 38.4995 27.617 38.2151 27.617 38.2151Z" fill="white"/>
</svg>
